<mxfile host="65bd71144e">
    <diagram id="Os5JPxO0lozD0gvnCGAL" name="define one gait cycle">
        <mxGraphModel dx="1168" dy="958" grid="1" gridSize="10" guides="1" tooltips="1" connect="1" arrows="1" fold="1" page="0" pageScale="1" pageWidth="827" pageHeight="1169" background="#ffffff" math="1" shadow="0">
            <root>
                <mxCell id="0"/>
                <mxCell id="1" parent="0"/>
                <mxCell id="6" value="" style="edgeStyle=none;html=1;fillColor=#f5f5f5;strokeColor=#000000;snapToPoint=0;fixDash=0;editable=1;movable=1;resizable=1;rotatable=1;deletable=1;connectable=1;" edge="1" parent="1" source="2" target="3">
                    <mxGeometry relative="1" as="geometry"/>
                </mxCell>
                <mxCell id="2" value="video" style="whiteSpace=wrap;html=1;aspect=fixed;fillColor=#f5f5f5;strokeColor=#000000;fontColor=#333333;snapToPoint=0;fixDash=0;editable=1;movable=1;resizable=1;rotatable=1;deletable=1;connectable=1;" vertex="1" parent="1">
                    <mxGeometry x="-470" y="50" width="100" height="100" as="geometry"/>
                </mxCell>
                <mxCell id="8" value="" style="edgeStyle=none;html=1;fillColor=#f5f5f5;strokeColor=#000000;snapToPoint=0;fixDash=0;editable=1;movable=1;resizable=1;rotatable=1;deletable=1;connectable=1;" edge="1" parent="1" source="3" target="7">
                    <mxGeometry relative="1" as="geometry"/>
                </mxCell>
                <mxCell id="3" value="static image" style="whiteSpace=wrap;html=1;aspect=fixed;fillColor=#f5f5f5;strokeColor=#000000;fontColor=#333333;snapToPoint=0;fixDash=0;editable=1;movable=1;resizable=1;rotatable=1;deletable=1;connectable=1;" vertex="1" parent="1">
                    <mxGeometry x="-330" y="50" width="100" height="100" as="geometry"/>
                </mxCell>
                <mxCell id="10" value="" style="edgeStyle=none;html=1;fillColor=#f5f5f5;strokeColor=#000000;snapToPoint=0;fixDash=0;editable=1;movable=1;resizable=1;rotatable=1;deletable=1;connectable=1;" edge="1" parent="1" source="7" target="9">
                    <mxGeometry relative="1" as="geometry"/>
                </mxCell>
                <mxCell id="7" value="pose estimation" style="rounded=1;whiteSpace=wrap;html=1;fillColor=#f5f5f5;strokeColor=#000000;fontColor=#333333;snapToPoint=0;fixDash=0;editable=1;movable=1;resizable=1;rotatable=1;deletable=1;connectable=1;" vertex="1" parent="1">
                    <mxGeometry x="-190" y="70" width="120" height="60" as="geometry"/>
                </mxCell>
                <mxCell id="15" value="" style="edgeStyle=none;html=1;strokeColor=#000000;" edge="1" parent="1" source="9" target="12">
                    <mxGeometry relative="1" as="geometry"/>
                </mxCell>
                <mxCell id="9" value="patient keypoint" style="shape=umlActor;verticalLabelPosition=bottom;verticalAlign=top;html=1;outlineConnect=0;fillColor=#f5f5f5;strokeColor=#000000;fontColor=#333333;snapToPoint=0;fixDash=0;editable=1;movable=1;resizable=1;rotatable=1;deletable=1;connectable=1;" vertex="1" parent="1">
                    <mxGeometry x="-30" y="70" width="30" height="60" as="geometry"/>
                </mxCell>
                <mxCell id="20" style="edgeStyle=none;html=1;entryX=0;entryY=0.5;entryDx=0;entryDy=0;strokeColor=#000000;exitX=1;exitY=0.5;exitDx=0;exitDy=0;" edge="1" parent="1" source="12" target="16">
                    <mxGeometry relative="1" as="geometry"/>
                </mxCell>
                <mxCell id="21" style="edgeStyle=none;html=1;entryX=0;entryY=0.5;entryDx=0;entryDy=0;strokeColor=#000000;exitX=1;exitY=0.5;exitDx=0;exitDy=0;" edge="1" parent="1" source="12" target="17">
                    <mxGeometry relative="1" as="geometry"/>
                </mxCell>
                <mxCell id="22" style="edgeStyle=none;html=1;entryX=0;entryY=0.5;entryDx=0;entryDy=0;strokeColor=#000000;exitX=1;exitY=0.5;exitDx=0;exitDy=0;" edge="1" parent="1" source="12" target="18">
                    <mxGeometry relative="1" as="geometry"/>
                </mxCell>
                <mxCell id="23" style="edgeStyle=none;html=1;entryX=0;entryY=0.5;entryDx=0;entryDy=0;strokeColor=#000000;exitX=1;exitY=0.5;exitDx=0;exitDy=0;" edge="1" parent="1" source="12" target="19">
                    <mxGeometry relative="1" as="geometry"/>
                </mxCell>
                <mxCell id="12" value="define one gait cycle" style="rhombus;whiteSpace=wrap;html=1;strokeColor=#666666;fillColor=#f5f5f5;fontColor=#333333;" vertex="1" parent="1">
                    <mxGeometry x="40" y="60" width="80" height="80" as="geometry"/>
                </mxCell>
                <mxCell id="16" value="a gait cycle" style="rounded=0;whiteSpace=wrap;html=1;strokeColor=#666666;fillColor=#f5f5f5;fontColor=#333333;" vertex="1" parent="1">
                    <mxGeometry x="160" y="-35" width="120" height="60" as="geometry"/>
                </mxCell>
                <mxCell id="17" value="b gait cycle" style="rounded=0;whiteSpace=wrap;html=1;strokeColor=#666666;fillColor=#f5f5f5;fontColor=#333333;" vertex="1" parent="1">
                    <mxGeometry x="160" y="35" width="120" height="60" as="geometry"/>
                </mxCell>
                <mxCell id="18" value="c gait cycle" style="rounded=0;whiteSpace=wrap;html=1;strokeColor=#666666;fillColor=#f5f5f5;fontColor=#333333;" vertex="1" parent="1">
                    <mxGeometry x="160" y="105" width="120" height="60" as="geometry"/>
                </mxCell>
                <mxCell id="19" value="d gait cycle" style="rounded=0;whiteSpace=wrap;html=1;strokeColor=#666666;fillColor=#f5f5f5;fontColor=#333333;" vertex="1" parent="1">
                    <mxGeometry x="160" y="175" width="120" height="60" as="geometry"/>
                </mxCell>
            </root>
        </mxGraphModel>
    </diagram>
</mxfile>